# This file uses centimeters as units for non-parametric coordinates.

mtllib furnace.mtl
g default
v -45.720001 -42.335056 40.187557
v 45.720001 -42.335056 40.187557
v -45.720001 23.875433 40.187557
v 45.720001 23.875433 40.187557
v -45.720001 23.875433 -51.252457
v 45.720001 23.875433 -51.252457
v -45.720001 -42.335056 -51.252457
v 45.720001 -42.335056 -51.252457
v 45.720001 7.245902 40.187557
v -45.720001 7.245902 40.187557
v -45.720001 7.245902 -51.252457
v 45.720001 7.245902 -51.252457
v 73.833572 7.245902 68.301125
v -73.833572 7.245902 68.301125
v 73.833572 23.875433 68.301125
v -73.833572 23.875433 68.301125
v -73.833572 7.245902 -79.366020
v -73.833572 23.875433 -79.366020
v 73.833572 23.875433 -79.366020
v 73.833572 7.245902 -79.366020
v -36.674244 17.762217 31.141796
v 36.674244 17.762217 31.141796
v 36.674244 17.762217 -42.206699
v -36.674244 17.762217 -42.206699
v -32.206436 12.229639 26.673988
v 32.206436 12.229639 26.673988
v 32.206436 12.229639 -37.738888
v -32.206436 12.229639 -37.738888
v 67.942619 23.875433 62.410172
v 67.942619 23.875433 -73.475075
v -67.942619 23.875433 -73.475075
v -67.942619 23.875433 62.410172
v 51.429256 23.875433 45.896812
v 51.429256 23.875433 -56.961712
v -51.429256 23.875433 -56.961712
v -51.429256 23.875433 45.896812
v -45.720001 25.789536 40.187557
v 45.720001 25.789536 40.187557
v -51.429256 25.789536 45.896812
v 51.429256 25.789536 45.896812
v -45.720001 25.789536 -51.252457
v -51.429256 25.789536 -56.961712
v 45.720001 25.789536 -51.252457
v 51.429256 25.789536 -56.961712
v 67.942619 24.523069 62.410172
v 67.942619 24.523069 -73.475075
v 73.833572 24.523069 68.301125
v 73.833572 24.523069 -79.366020
v -67.942619 24.523069 -73.475075
v -73.833572 24.523069 -79.366020
v -67.942619 24.523069 62.410172
v -73.833572 24.523069 68.301125
vt 0.375000 0.000000
vt 0.625000 0.000000
vt 0.375000 0.250000
vt 0.625000 0.250000
vt 0.375000 0.500000
vt 0.625000 0.500000
vt 0.375000 0.750000
vt 0.625000 0.750000
vt 0.375000 1.000000
vt 0.625000 1.000000
vt 0.875000 0.000000
vt 0.875000 0.250000
vt 0.125000 0.000000
vt 0.125000 0.250000
vt 0.625000 0.185280
vt 0.375000 0.185280
vt 0.125000 0.185280
vt 0.375000 0.564720
vt 0.625000 0.564720
vt 0.875000 0.185280
vt 0.375000 0.185280
vt 0.625000 0.185280
vt 0.625000 0.250000
vt 0.375000 0.250000
vt 0.125000 0.185280
vt 0.125000 0.250000
vt 0.375000 0.500000
vt 0.625000 0.500000
vt 0.625000 0.564720
vt 0.375000 0.564720
vt 0.875000 0.185280
vt 0.875000 0.250000
vt 0.375000 0.250000
vt 0.625000 0.250000
vt 0.625000 0.500000
vt 0.375000 0.500000
vt 0.375000 0.250000
vt 0.625000 0.250000
vt 0.625000 0.500000
vt 0.375000 0.500000
vt 0.625000 0.250000
vt 0.625000 0.500000
vt 0.875000 0.250000
vt 0.125000 0.250000
vt 0.375000 0.500000
vt 0.375000 0.250000
vt 0.625000 0.250000
vt 0.625000 0.500000
vt 0.875000 0.250000
vt 0.125000 0.250000
vt 0.375000 0.500000
vt 0.375000 0.250000
vt 0.625000 0.250000
vt 0.375000 0.250000
vt 0.375000 0.250000
vt 0.625000 0.250000
vt 0.125000 0.250000
vt 0.125000 0.250000
vt 0.375000 0.500000
vt 0.625000 0.500000
vt 0.625000 0.500000
vt 0.375000 0.500000
vt 0.875000 0.250000
vt 0.875000 0.250000
vt 0.875000 0.250000
vt 0.625000 0.250000
vt 0.625000 0.250000
vt 0.875000 0.250000
vt 0.375000 0.500000
vt 0.625000 0.500000
vt 0.625000 0.500000
vt 0.375000 0.500000
vt 0.375000 0.250000
vt 0.125000 0.250000
vt 0.125000 0.250000
vt 0.375000 0.250000
vn 0.000000 0.000000 1.000000
vn 0.000000 0.000000 1.000000
vn 0.000000 0.000000 1.000000
vn 0.000000 0.000000 1.000000
vn 0.000000 1.000000 0.000000
vn 0.000000 1.000000 0.000000
vn 0.000000 1.000000 0.000000
vn 0.000000 1.000000 0.000000
vn 0.000000 0.000000 -1.000000
vn 0.000000 0.000000 -1.000000
vn 0.000000 0.000000 -1.000000
vn 0.000000 0.000000 -1.000000
vn 0.000000 -1.000000 0.000000
vn 0.000000 -1.000000 0.000000
vn 0.000000 -1.000000 0.000000
vn 0.000000 -1.000000 0.000000
vn 1.000000 0.000000 0.000000
vn 1.000000 0.000000 0.000000
vn 1.000000 0.000000 0.000000
vn 1.000000 0.000000 0.000000
vn -1.000000 0.000000 0.000000
vn -1.000000 0.000000 0.000000
vn -1.000000 0.000000 0.000000
vn -1.000000 0.000000 0.000000
vn 0.000000 0.000000 1.000000
vn 0.000000 0.000000 1.000000
vn 0.000000 0.000000 1.000000
vn 0.000000 0.000000 1.000000
vn -1.000000 0.000000 0.000000
vn -1.000000 0.000000 0.000000
vn -1.000000 0.000000 0.000000
vn -1.000000 0.000000 0.000000
vn 0.000000 0.000000 -1.000000
vn 0.000000 0.000000 -1.000000
vn 0.000000 0.000000 -1.000000
vn 0.000000 0.000000 -1.000000
vn 1.000000 0.000000 0.000000
vn 1.000000 0.000000 0.000000
vn 1.000000 0.000000 0.000000
vn 1.000000 0.000000 0.000000
vn 0.000000 -1.000000 -0.000000
vn 0.000000 -1.000000 -0.000000
vn 0.000000 -1.000000 -0.000000
vn 0.000000 -1.000000 -0.000000
vn 0.000000 1.000000 0.000000
vn 0.000000 1.000000 0.000000
vn 0.000000 1.000000 0.000000
vn 0.000000 1.000000 0.000000
vn 0.000000 -1.000000 0.000000
vn 0.000000 -1.000000 0.000000
vn 0.000000 1.000000 -0.000000
vn 0.000000 1.000000 -0.000000
vn 0.000000 1.000000 -0.000000
vn 0.000000 1.000000 -0.000000
vn 0.000000 -1.000000 0.000000
vn 0.000000 -1.000000 0.000000
vn 0.000000 0.828537 -0.559934
vn 0.000000 0.828537 -0.559934
vn 0.000000 0.828537 -0.559934
vn 0.000000 0.828537 -0.559934
vn -0.559934 0.828537 0.000000
vn -0.559934 0.828537 0.000000
vn -0.559934 0.828537 0.000000
vn -0.559934 0.828537 0.000000
vn 0.000000 0.828537 0.559934
vn 0.000000 0.828537 0.559934
vn 0.000000 0.828537 0.559934
vn 0.000000 0.828537 0.559934
vn 0.559934 0.828537 0.000000
vn 0.559934 0.828537 0.000000
vn 0.559934 0.828537 0.000000
vn 0.559934 0.828537 0.000000
vn 0.000000 0.628268 -0.777997
vn 0.000000 0.628268 -0.777997
vn 0.000000 0.628268 -0.777997
vn 0.000000 0.628268 -0.777997
vn -0.777997 0.628268 0.000000
vn -0.777997 0.628268 0.000000
vn -0.777997 0.628268 0.000000
vn -0.777997 0.628268 0.000000
vn 0.000000 0.628268 0.777997
vn 0.000000 0.628268 0.777997
vn 0.000000 0.628268 0.777997
vn 0.000000 0.628268 0.777997
vn 0.777997 0.628268 0.000000
vn 0.777997 0.628268 0.000000
vn 0.777997 0.628268 0.000000
vn 0.777997 0.628268 0.000000
vn 0.000000 1.000000 -0.000000
vn 0.000000 1.000000 0.000000
vn 0.000000 1.000000 0.000000
vn 0.000000 1.000000 -0.000000
vn 0.000000 1.000000 -0.000000
vn 0.000000 1.000000 -0.000000
vn 0.000000 1.000000 0.000000
vn 0.000000 1.000000 0.000000
vn 0.000000 1.000000 -0.000000
vn 0.000000 1.000000 0.000000
vn 0.000000 1.000000 0.000000
vn 0.000000 1.000000 -0.000000
vn 0.000000 1.000000 -0.000000
vn 0.000000 1.000000 -0.000000
vn 0.000000 1.000000 0.000000
vn 0.000000 1.000000 0.000000
vn 0.000000 0.000000 -1.000000
vn 0.000000 0.000000 -1.000000
vn 0.000000 0.000000 -1.000000
vn 0.000000 0.000000 -1.000000
vn 0.000000 0.000000 1.000000
vn 0.000000 0.000000 1.000000
vn 0.000000 0.000000 1.000000
vn 0.000000 0.000000 1.000000
vn 1.000000 0.000000 0.000000
vn 1.000000 0.000000 0.000000
vn 1.000000 0.000000 0.000000
vn 1.000000 0.000000 0.000000
vn -1.000000 0.000000 0.000000
vn -1.000000 0.000000 0.000000
vn -1.000000 0.000000 0.000000
vn -1.000000 0.000000 0.000000
vn 0.000000 0.000000 1.000000
vn 0.000000 0.000000 1.000000
vn 0.000000 0.000000 1.000000
vn 0.000000 0.000000 1.000000
vn 0.000000 0.000000 -1.000000
vn 0.000000 0.000000 -1.000000
vn 0.000000 0.000000 -1.000000
vn 0.000000 0.000000 -1.000000
vn -1.000000 0.000000 0.000000
vn -1.000000 0.000000 0.000000
vn -1.000000 0.000000 0.000000
vn -1.000000 0.000000 0.000000
vn 1.000000 0.000000 0.000000
vn 1.000000 0.000000 0.000000
vn 1.000000 0.000000 0.000000
vn 1.000000 0.000000 0.000000
vn -1.000000 0.000000 0.000000
vn -1.000000 0.000000 0.000000
vn -1.000000 0.000000 0.000000
vn -1.000000 0.000000 0.000000
vn 1.000000 0.000000 0.000000
vn 1.000000 0.000000 0.000000
vn 0.000000 0.000000 1.000000
vn 0.000000 0.000000 1.000000
vn 0.000000 0.000000 1.000000
vn 0.000000 0.000000 1.000000
vn 0.000000 0.000000 -1.000000
vn 0.000000 0.000000 -1.000000
vn 1.000000 0.000000 0.000000
vn 1.000000 0.000000 0.000000
vn 1.000000 0.000000 0.000000
vn 1.000000 0.000000 0.000000
vn -1.000000 0.000000 0.000000
vn -1.000000 0.000000 0.000000
vn 0.000000 0.000000 -1.000000
vn 0.000000 0.000000 -1.000000
vn 0.000000 0.000000 -1.000000
vn 0.000000 0.000000 -1.000000
vn 0.000000 0.000000 1.000000
vn 0.000000 0.000000 1.000000
s off
g furnace
usemtl initialShadingGroup
f 1/1/1 2/2/2 9/15/3 10/16/4
f 25/37/5 26/38/6 27/39/7 28/40/8
f 11/18/9 12/19/10 8/8/11 7/7/12
f 7/7/13 8/8/14 2/10/15 1/9/16
f 2/2/17 8/11/18 12/20/19 9/15/20
f 7/13/21 1/1/22 10/16/23 11/17/24
s 1
f 14/21/25 13/22/26 15/23/27 16/24/28
s 2
f 17/25/29 14/21/30 16/24/31 18/26/32
s 3
f 18/27/33 19/28/34 20/29/35 17/30/36
s 4
f 13/22/37 20/31/38 19/32/39 15/23/40
s 5
f 10/16/41 9/15/42 13/22/43 14/21/44
s 6
f 38/53/45 37/54/46 39/55/47 40/56/48
s 5
f 11/17/49 10/16/41 14/21/44 17/25/50
s 6
f 37/54/46 41/57/51 42/58/52 39/55/47
f 41/59/51 43/60/53 44/61/54 42/62/52
s 5
f 12/19/55 11/18/49 17/30/50 20/29/56
f 9/15/42 12/20/55 20/31/56 13/22/43
s 6
f 43/63/53 38/53/45 40/56/48 44/64/54
s off
f 3/3/57 4/4/58 22/34/59 21/33/60
f 4/4/61 6/6/62 23/35/63 22/34/64
f 6/6/65 5/5/66 24/36/67 23/35/68
f 5/5/69 3/3/70 21/33/71 24/36/72
f 21/33/73 22/34/74 26/38/75 25/37/76
f 22/34/77 23/35/78 27/39/79 26/38/80
f 23/35/81 24/36/82 28/40/83 27/39/84
f 24/36/85 21/33/86 25/37/87 28/40/88
s 7
f 46/65/89 45/66/90 47/67/91 48/68/92
f 49/69/93 46/70/89 48/71/92 50/72/94
f 51/73/95 49/74/93 50/75/94 52/76/96
f 45/66/90 51/73/95 52/76/96 47/67/91
s 8
f 34/49/97 33/47/98 29/41/99 30/43/100
f 35/51/101 34/48/97 30/42/100 31/45/102
f 36/52/103 35/50/101 31/44/102 32/46/104
f 33/47/98 36/52/103 32/46/104 29/41/99
s off
f 4/4/105 3/3/106 37/54/107 38/53/108
f 36/52/109 33/47/110 40/56/111 39/55/112
f 3/3/113 5/14/114 41/57/115 37/54/116
f 35/50/117 36/52/118 39/55/119 42/58/120
f 5/5/121 6/6/122 43/60/123 41/59/124
f 34/48/125 35/51/126 42/62/127 44/61/128
f 6/12/129 4/4/130 38/53/131 43/63/132
f 33/47/133 34/49/134 44/64/135 40/56/136
f 30/43/137 29/41/138 45/66/139 46/65/140
s 4
f 15/23/40 19/32/39 48/68/141 47/67/142
s off
f 31/45/143 30/42/144 46/70/145 49/69/146
s 3
f 19/28/34 18/27/33 50/72/147 48/71/148
s off
f 32/46/149 31/44/150 49/74/151 51/73/152
s 2
f 18/26/32 16/24/31 52/76/153 50/75/154
s off
f 29/41/155 32/46/156 51/73/157 45/66/158
s 1
f 16/24/28 15/23/27 47/67/159 52/76/160
