# This file uses centimeters as units for non-parametric coordinates.

mtllib pillow.mtl
g default
v -25.577015 -42.906635 127.542618
v 25.577015 -42.906635 127.542618
v -25.577015 -36.018044 127.542618
v 25.577015 -36.018044 127.542618
v -25.577011 -36.018044 76.388588
v 25.577015 -36.018044 76.388588
v -25.577011 -42.906635 76.388580
v 25.577015 -42.906635 76.388588
v -27.806984 -34.854099 101.965599
v 41.288891 -40.442539 62.003185
v 0.000000 -43.417480 74.158615
v -40.579750 -40.442539 62.003185
v 27.806984 -43.417480 101.965599
v -27.806984 -43.417480 101.965599
v -0.000000 -43.417480 129.772583
v 41.288891 -40.442539 143.675354
v -0.000000 -34.854099 129.772583
v -40.579750 -40.442539 143.675354
v 27.806984 -34.854099 101.965599
v 0.000000 -34.854099 74.158615
v -0.000000 -40.442539 143.675415
v -0.000000 -32.810280 101.965599
v 0.000000 -40.442539 62.003136
v -0.000000 -44.314484 101.965599
v 41.288940 -40.442539 101.965599
v -40.579796 -40.442539 101.965599
v -33.247429 -37.818008 68.718170
v 33.247429 -37.818008 68.718170
v 19.021545 -40.442539 62.003136
v 33.247429 -42.116650 68.718170
v 15.797562 -43.248669 74.158638
v -0.000000 -42.302010 68.718124
v -15.797560 -43.248669 74.158638
v -33.247429 -42.116650 68.718170
v -0.000000 -44.089409 86.812805
v -15.152791 -44.089409 101.965599
v -27.806965 -43.248669 86.168037
v 27.806961 -43.248669 86.168037
v 15.152791 -44.089409 101.965599
v 27.806965 -43.248669 117.763161
v -0.000000 -44.089409 117.118393
v -27.806965 -43.248669 117.763161
v 33.247475 -42.302010 101.965599
v 41.288940 -40.442539 120.987144
v 41.288940 -40.442539 82.944054
v 33.247475 -37.395672 101.965599
v -33.247475 -42.302010 101.965599
v -40.579800 -40.442539 82.944054
v -40.579800 -40.442539 120.987144
v -33.247475 -37.395672 101.965599
v -15.797562 -43.248669 129.772568
v 0.000000 -42.302010 135.213074
v -19.021545 -40.442539 143.675415
v -33.247429 -42.116650 135.213028
v 15.797562 -43.248669 129.772552
v 33.247429 -42.116650 135.213028
v 19.021545 -40.442539 143.675415
v 33.247429 -37.818008 135.213028
v 15.797562 -35.238728 129.772568
v -0.000000 -37.395672 135.213074
v -15.797562 -35.238728 129.772552
v -33.247429 -37.818008 135.213028
v -0.000000 -33.323120 117.118393
v -15.152791 -33.323120 101.965599
v -27.806965 -35.238728 117.763161
v 27.806961 -35.238728 117.763161
v 15.152791 -33.323120 101.965599
v 27.806965 -35.238728 86.168037
v 15.797562 -35.238728 74.158638
v -0.000000 -33.323120 86.812805
v -15.797560 -35.238728 74.158638
v -27.806961 -35.238728 86.168037
v 0.000000 -37.395672 68.718124
v -19.021545 -40.442539 62.003136
v -17.731951 -42.209332 135.213074
v 17.731951 -42.209332 135.213074
v 17.731951 -37.606838 135.213074
v -17.731951 -37.606838 135.213074
v -15.152780 -33.805794 117.118378
v 15.152780 -33.805794 117.118378
v 15.152780 -33.805794 86.812820
v -15.152780 -33.805794 86.812820
v -17.731951 -37.606838 68.718124
v 17.731951 -37.606838 68.718124
v 17.731951 -42.209332 68.718124
v -17.731951 -42.209332 68.718124
v -15.152780 -43.877567 86.812820
v 15.152780 -43.877567 86.812820
v 15.152780 -43.877567 117.118378
v -15.152780 -43.877567 117.118378
v 33.247475 -42.209332 119.697548
v 33.247475 -42.209332 84.233650
v 33.247475 -37.606838 84.233650
v 33.247475 -37.606838 119.697548
v -33.247475 -42.209332 84.233650
v -33.247475 -42.209332 119.697548
v -33.247475 -37.606838 119.697548
v -33.247475 -37.606838 84.233650
vt 0.375000 0.000000
vt 0.375000 1.000000
vt 0.625000 0.000000
vt 0.625000 1.000000
vt 0.375000 0.250000
vt 0.625000 0.250000
vt 0.375000 0.500000
vt 0.125000 0.250000
vt 0.625000 0.500000
vt 0.875000 0.250000
vt 0.375000 0.750000
vt 0.125000 0.000000
vt 0.625000 0.750000
vt 0.875000 0.000000
vt 0.375000 0.375000
vt 0.250000 0.250000
vt 0.625000 0.625000
vt 0.875000 0.125000
vt 0.500000 0.750000
vt 0.375000 0.625000
vt 0.125000 0.125000
vt 0.625000 0.875000
vt 0.750000 0.000000
vt 0.375000 0.875000
vt 0.250000 0.000000
vt 0.500000 0.000000
vt 0.500000 1.000000
vt 0.625000 0.125000
vt 0.500000 0.250000
vt 0.375000 0.125000
vt 0.625000 0.375000
vt 0.750000 0.250000
vt 0.500000 0.500000
vt 0.500000 0.125000
vt 0.500000 0.375000
vt 0.500000 0.625000
vt 0.500000 0.875000
vt 0.750000 0.125000
vt 0.250000 0.125000
vt 0.437500 0.062500
vt 0.562500 0.062500
vt 0.562500 0.187500
vt 0.437500 0.187500
vt 0.437500 0.312500
vt 0.562500 0.312500
vt 0.562500 0.437500
vt 0.437500 0.437500
vt 0.437500 0.562500
vt 0.562500 0.562500
vt 0.562500 0.687500
vt 0.437500 0.687500
vt 0.437500 0.812500
vt 0.562500 0.812500
vt 0.562500 0.937500
vt 0.437500 0.937500
vt 0.687500 0.062500
vt 0.812500 0.062500
vt 0.812500 0.187500
vt 0.687500 0.187500
vt 0.187500 0.062500
vt 0.312500 0.062500
vt 0.312500 0.187500
vt 0.187500 0.187500
vt 0.437500 0.000000
vt 0.437500 1.000000
vt 0.500000 0.062500
vt 0.437500 0.125000
vt 0.375000 0.062500
vt 0.562500 0.000000
vt 0.562500 1.000000
vt 0.625000 0.062500
vt 0.562500 0.125000
vt 0.625000 0.187500
vt 0.562500 0.250000
vt 0.500000 0.187500
vt 0.437500 0.250000
vt 0.375000 0.187500
vt 0.500000 0.312500
vt 0.437500 0.375000
vt 0.375000 0.312500
vt 0.312500 0.250000
vt 0.625000 0.312500
vt 0.687500 0.250000
vt 0.562500 0.375000
vt 0.625000 0.437500
vt 0.812500 0.250000
vt 0.562500 0.500000
vt 0.500000 0.437500
vt 0.437500 0.500000
vt 0.375000 0.437500
vt 0.187500 0.250000
vt 0.500000 0.562500
vt 0.437500 0.625000
vt 0.375000 0.562500
vt 0.125000 0.187500
vt 0.625000 0.562500
vt 0.875000 0.187500
vt 0.562500 0.625000
vt 0.625000 0.687500
vt 0.875000 0.062500
vt 0.562500 0.750000
vt 0.500000 0.687500
vt 0.437500 0.750000
vt 0.375000 0.687500
vt 0.125000 0.062500
vt 0.500000 0.812500
vt 0.437500 0.875000
vt 0.375000 0.812500
vt 0.187500 0.000000
vt 0.625000 0.812500
vt 0.812500 0.000000
vt 0.562500 0.875000
vt 0.625000 0.937500
vt 0.687500 0.000000
vt 0.500000 0.937500
vt 0.375000 0.937500
vt 0.312500 0.000000
vt 0.750000 0.062500
vt 0.687500 0.125000
vt 0.812500 0.125000
vt 0.750000 0.187500
vt 0.250000 0.062500
vt 0.187500 0.125000
vt 0.312500 0.125000
vt 0.250000 0.187500
vn -0.062424 -0.996096 0.062424
vn -0.021481 -0.995379 0.093591
vn -0.008631 -0.982863 0.184134
vn -0.106664 -0.989393 0.098613
vn 0.000000 -0.995301 0.096828
vn 0.000000 -0.979119 0.203286
vn 0.000000 -0.000000 1.000000
vn -0.015249 -0.000023 0.999884
vn -0.657285 0.046693 0.752194
vn 0.021481 -0.995379 0.093591
vn 0.008584 -0.982853 0.184189
vn 0.062424 -0.996096 0.062424
vn 0.100245 -0.990180 0.097440
vn 0.689259 0.045284 0.723099
vn 0.015100 -0.000074 0.999886
vn 0.018769 0.947283 0.319847
vn -0.000000 0.933356 0.358951
vn 0.164476 0.973289 0.160175
vn 0.140042 0.980192 0.140042
vn 0.048138 0.976793 0.208706
vn -0.000000 0.976402 0.215962
vn -0.018872 0.947238 0.319976
vn -0.174519 0.971201 0.162208
vn -0.048138 0.976793 0.208706
vn -0.140042 0.980192 0.140042
vn -0.065147 0.995747 0.065147
vn -0.208706 0.976793 0.048138
vn -0.000000 0.997472 0.071062
vn -0.000000 1.000000 0.000000
vn -0.071062 0.997472 -0.000000
vn -0.215962 0.976402 -0.000000
vn 0.065147 0.995747 0.065147
vn 0.208706 0.976793 0.048138
vn 0.215962 0.976402 -0.000000
vn 0.071062 0.997472 0.000000
vn 0.065147 0.995747 -0.065148
vn -0.000000 0.997472 -0.071062
vn 0.208706 0.976793 -0.048138
vn 0.140042 0.980192 -0.140042
vn 0.048138 0.976793 -0.208706
vn -0.000000 0.976402 -0.215962
vn -0.065147 0.995747 -0.065147
vn -0.208706 0.976793 -0.048138
vn -0.048138 0.976793 -0.208706
vn -0.140042 0.980192 -0.140042
vn -0.020564 0.931759 -0.362495
vn -0.179857 0.965602 -0.187788
vn 0.000000 0.914645 -0.404258
vn 0.000000 -0.000000 -1.000000
vn -0.012109 -0.000035 -0.999927
vn -0.734872 0.051393 -0.676256
vn 0.020463 0.931758 -0.362503
vn 0.169661 0.967871 -0.185584
vn 0.763387 0.049105 -0.644072
vn 0.011989 -0.000110 -0.999928
vn 0.009463 -0.977430 -0.211046
vn 0.000000 -0.972681 -0.232145
vn 0.103252 -0.988134 -0.113715
vn 0.062424 -0.996096 -0.062424
vn 0.021481 -0.995379 -0.093591
vn 0.000000 -0.995301 -0.096828
vn -0.009510 -0.977463 -0.210892
vn -0.109785 -0.987279 -0.115015
vn -0.021481 -0.995379 -0.093591
vn -0.062424 -0.996096 -0.062424
vn -0.028703 -0.999176 -0.028703
vn -0.093591 -0.995379 -0.021481
vn 0.000000 -0.999511 -0.031275
vn 0.000000 -1.000000 0.000000
vn -0.031275 -0.999511 0.000000
vn -0.096828 -0.995301 -0.000000
vn 0.028703 -0.999176 -0.028704
vn 0.093591 -0.995379 -0.021481
vn 0.096828 -0.995301 0.000000
vn 0.031275 -0.999511 0.000000
vn 0.028703 -0.999176 0.028703
vn 0.000000 -0.999511 0.031275
vn 0.093591 -0.995379 0.021481
vn -0.028703 -0.999176 0.028703
vn -0.093591 -0.995379 0.021481
vn 0.190069 -0.981732 0.008747
vn 0.209577 -0.977792 0.000000
vn 1.000000 0.000000 -0.000000
vn 0.999898 -0.000114 0.014267
vn 0.189884 -0.981767 -0.008864
vn 0.999893 0.000024 -0.014619
vn 0.329425 0.943984 -0.019336
vn 0.368987 0.929435 0.000000
vn 0.329175 0.944076 0.019083
vn -0.200510 -0.979648 -0.009214
vn -0.221082 -0.975255 -0.000000
vn -1.000000 -0.000000 0.000000
vn -0.999911 0.000028 -0.013334
vn -0.200791 -0.979592 0.009098
vn -0.999915 -0.000134 0.013011
vn -0.346248 0.937935 0.019760
vn -0.387113 0.922032 -0.000000
vn -0.346365 0.937887 -0.020012
s 1
g pillow
usemtl initialShadingGroup
f 1/1/1 51/64/2 75/40/3 54/68/4
f 51/64/2 15/26/5 52/66/6 75/40/3
f 75/40/3 52/66/6 21/34/7 53/67/8
f 54/68/4 75/40/3 53/67/8 18/30/9
f 15/26/5 55/69/10 76/41/11 52/66/6
f 55/69/10 2/3/12 56/71/13 76/41/11
f 76/41/11 56/71/13 16/28/14 57/72/15
f 52/66/6 76/41/11 57/72/15 21/34/7
f 21/34/7 57/72/15 77/42/16 60/75/17
f 57/72/15 16/28/14 58/73/18 77/42/16
f 77/42/16 58/73/18 4/6/19 59/74/20
f 60/75/17 77/42/16 59/74/20 17/29/21
f 18/30/9 53/67/8 78/43/22 62/77/23
f 53/67/8 21/34/7 60/75/17 78/43/22
f 78/43/22 60/75/17 17/29/21 61/76/24
f 62/77/23 78/43/22 61/76/24 3/5/25
f 3/5/25 61/76/24 79/44/26 65/80/27
f 61/76/24 17/29/21 63/78/28 79/44/26
f 79/44/26 63/78/28 22/35/29 64/79/30
f 65/80/27 79/44/26 64/79/30 9/15/31
f 17/29/21 59/74/20 80/45/32 63/78/28
f 59/74/20 4/6/19 66/82/33 80/45/32
f 80/45/32 66/82/33 19/31/34 67/84/35
f 63/78/28 80/45/32 67/84/35 22/35/29
f 22/35/29 67/84/35 81/46/36 70/88/37
f 67/84/35 19/31/34 68/85/38 81/46/36
f 81/46/36 68/85/38 6/9/39 69/87/40
f 70/88/37 81/46/36 69/87/40 20/33/41
f 9/15/31 64/79/30 82/47/42 72/90/43
f 64/79/30 22/35/29 70/88/37 82/47/42
f 82/47/42 70/88/37 20/33/41 71/89/44
f 72/90/43 82/47/42 71/89/44 5/7/45
f 5/7/45 71/89/44 83/48/46 27/94/47
f 71/89/44 20/33/41 73/92/48 83/48/46
f 83/48/46 73/92/48 23/36/49 74/93/50
f 27/94/47 83/48/46 74/93/50 12/20/51
f 20/33/41 69/87/40 84/49/52 73/92/48
f 69/87/40 6/9/39 28/96/53 84/49/52
f 84/49/52 28/96/53 10/17/54 29/98/55
f 73/92/48 84/49/52 29/98/55 23/36/49
f 23/36/49 29/98/55 85/50/56 32/102/57
f 29/98/55 10/17/54 30/99/58 85/50/56
f 85/50/56 30/99/58 8/13/59 31/101/60
f 32/102/57 85/50/56 31/101/60 11/19/61
f 12/20/51 74/93/50 86/51/62 34/104/63
f 74/93/50 23/36/49 32/102/57 86/51/62
f 86/51/62 32/102/57 11/19/61 33/103/64
f 34/104/63 86/51/62 33/103/64 7/11/65
f 7/11/65 33/103/64 87/52/66 37/108/67
f 33/103/64 11/19/61 35/106/68 87/52/66
f 87/52/66 35/106/68 24/37/69 36/107/70
f 37/108/67 87/52/66 36/107/70 14/24/71
f 11/19/61 31/101/60 88/53/72 35/106/68
f 31/101/60 8/13/59 38/110/73 88/53/72
f 88/53/72 38/110/73 13/22/74 39/112/75
f 35/106/68 88/53/72 39/112/75 24/37/69
f 24/37/69 39/112/75 89/54/76 41/115/77
f 39/112/75 13/22/74 40/113/78 89/54/76
f 89/54/76 40/113/78 2/4/12 55/70/10
f 41/115/77 89/54/76 55/70/10 15/27/5
f 14/24/71 36/107/70 90/55/79 42/116/80
f 36/107/70 24/37/69 41/115/77 90/55/79
f 90/55/79 41/115/77 15/27/5 51/65/2
f 42/116/80 90/55/79 51/65/2 1/2/1
f 2/3/12 40/114/78 91/56/81 56/71/13
f 40/114/78 13/23/74 43/118/82 91/56/81
f 91/56/81 43/118/82 25/38/83 44/119/84
f 56/71/13 91/56/81 44/119/84 16/28/14
f 13/23/74 38/111/73 92/57/85 43/118/82
f 38/111/73 8/14/59 30/100/58 92/57/85
f 92/57/85 30/100/58 10/18/54 45/120/86
f 43/118/82 92/57/85 45/120/86 25/38/83
f 25/38/83 45/120/86 93/58/87 46/121/88
f 45/120/86 10/18/54 28/97/53 93/58/87
f 93/58/87 28/97/53 6/10/39 68/86/38
f 46/121/88 93/58/87 68/86/38 19/32/34
f 16/28/14 44/119/84 94/59/89 58/73/18
f 44/119/84 25/38/83 46/121/88 94/59/89
f 94/59/89 46/121/88 19/32/34 66/83/33
f 58/73/18 94/59/89 66/83/33 4/6/19
f 7/12/65 37/109/67 95/60/90 34/105/63
f 37/109/67 14/25/71 47/122/91 95/60/90
f 95/60/90 47/122/91 26/39/92 48/123/93
f 34/105/63 95/60/90 48/123/93 12/21/51
f 14/25/71 42/117/80 96/61/94 47/122/91
f 42/117/80 1/1/1 54/68/4 96/61/94
f 96/61/94 54/68/4 18/30/9 49/124/95
f 47/122/91 96/61/94 49/124/95 26/39/92
f 26/39/92 49/124/95 97/62/96 50/125/97
f 49/124/95 18/30/9 62/77/23 97/62/96
f 97/62/96 62/77/23 3/5/25 65/81/27
f 50/125/97 97/62/96 65/81/27 9/16/31
f 12/21/51 48/123/93 98/63/98 27/95/47
f 48/123/93 26/39/92 50/125/97 98/63/98
f 98/63/98 50/125/97 9/16/31 72/91/43
f 27/95/47 98/63/98 72/91/43 5/8/45
