<?xml version="1.0" encoding="utf-8"?>
<!-- Generator: Adobe Illustrator 24.0.1, SVG Export Plug-In . SVG Version: 6.00 Build 0)  -->
<svg version="1.1" xmlns="http://www.w3.org/2000/svg" xmlns:xlink="http://www.w3.org/1999/xlink" x="0px" y="0px"
	 viewBox="0 0 157.6 182.91" style="enable-background:new 0 0 157.6 182.91;" xml:space="preserve">
<style type="text/css">
	.st0{fill:#FFFFFF;}
</style>
<g id="box">
	<polygon class="st0" points="0,45.12 78.27,0 157.6,45.78 157.6,138.35 80.46,182.91 0,136.57 	"/>
</g>
<g id="cat">
	<g>
		<path d="M89.83,29.1c3.93-0.2,7.33,1.12,9.99,3.95c1.87,1.99,2.84,4.6,3.66,7.18c1.29,4.07,1.79,8.29,2.25,12.52
			c0.26,2.41,0.49,4.82,0.62,7.23c0.16,2.86-0.29,5.71-0.78,8.53c-0.18,1.02-0.42,2.02-0.58,3.04c-0.07,0.45-0.19,0.91,0.2,1.35
			c1.91,2.13,2.75,4.72,3.09,7.49c0.33,2.72,0.56,5.45,0.54,8.21c-0.01,2.8-0.51,5.49-1.64,8c-0.96,2.14-0.31,3.78,1,5.36
			c0.55,0.67,1.21,1.26,1.92,1.79c2.13,1.6,2.57,3.92,2.18,6.32c-0.75,4.65-2.86,8.82-4.9,13.01c-0.29,0.6-0.75,0.99-1.42,1.18
			c-1.57,0.44-3.12,1-4.75,0.25c-0.69-0.32-0.64,0.35-0.81,0.69c-1.21,2.51-2.44,5.01-4.67,6.82c-1.14,0.93-2.45,1.59-3.93,1.48
			c-3.16-0.24-4.17-2.1-2.83-4.95c0.99-2.11,2.69-3.82,3.74-5.94c1.63-3.28,1.97-6.58,0.75-10.04c-0.18-0.5-0.35-0.8-1.01-0.61
			c-1.91,0.54-3.81,0.81-5.56-0.51c-0.23-0.18-0.45-0.06-0.68,0c-1.53,0.41-3.06,0.85-4.61,1.21c-0.61,0.14-0.6,0.52-0.63,0.97
			c-0.27,3.82-0.86,7.56-2.37,11.13c-0.99,2.34-1.87,4.75-2.27,7.27c-0.5,3.17-1.02,6.35-1.31,9.54c-0.29,3.18-0.73,6.29-2,9.26
			c-1,2.36-3.66,4.25-6.25,4.27c-0.48,0-0.96,0.01-1.44,0c-1.88-0.04-3.32-1.3-3.69-3.12c-0.52-2.57,0.08-4.96,1.07-7.3
			c0.2-0.48,0.47-0.92,0.68-1.4c0.31-0.73,0.7-1.32-0.26-2.07c-0.93-0.72-0.43-1.92-0.08-2.89c0.44-1.22,1.19-2.25,2.17-3.1
			c0.61-0.53,0.91-1.19,0.96-1.98c0.26-4.14-0.62-8.06-2.32-11.82c-2.23-4.94-5.22-9.46-7.83-14.2c-1.09-1.99-2.02-4.06-2.69-6.23
			c-0.32-1.03-0.91-1.44-1.84-1.75c-4.83-1.59-8.44-4.63-10.76-9.2c-1.03-2.03-1.03-4.15-0.84-6.3c0.04-0.47,0.03-0.84-0.18-1.24
			c-1.61-2.98-3-6.05-3.62-9.42c-0.19-1.03-0.14-2.07-0.08-3.1c0.06-1.03,1-1.54,2.25-1.29c1.35,0.27,2.56,0.88,3.69,1.63
			c1.49,0.99,2.95,2.03,4.33,3.16c0.77,0.62,1.41,0.59,2.28,0.29c3.88-1.32,7.83-2.13,11.92-1.01c0.66,0.18,1.06,0.03,1.45-0.44
			c1.12-1.34,2.24-2.68,3.36-4.02c0.05-0.06,0.09-0.13,0.15-0.19c0.9-0.83,1.74-1.96,3.15-1.5c1.36,0.44,1.47,1.83,1.54,2.99
			c0.09,1.42,0.22,2.86-0.16,4.28c-0.19,0.71,0.01,1.07,0.89,1.28c4.5,1.08,8.51,0.1,12.42-2.28c3.44-2.09,7.15-3.69,11.31-3.76
			c0.63-0.01,0.94-0.29,1.07-0.88c0.48-2.21,0.91-4.44,0.95-6.71c0.04-2.34,0.22-4.67,0.04-7.02c-0.34-4.44-0.63-8.88-2.44-13.04
			c-0.17-0.4-0.35-0.81-0.58-1.18c-1.89-3.06-3.93-3.31-6.77-1.08c-1.74,1.36-2.72,3.19-3.7,5.05c-1.03,1.97-2.48,3.12-4.83,2.98
			c-1.75-0.1-2.76-0.71-3.28-2.4c-0.97-3.14-0.56-6.16,1.09-8.97c2.7-4.59,6.92-6.58,12.11-6.8C88.79,29.08,89.31,29.1,89.83,29.1z"
			/>
	</g>
</g>
</svg>
