<?xml version="1.0" encoding="utf-8"?>
<!-- Generator: Adobe Illustrator 24.0.1, SVG Export Plug-In . SVG Version: 6.00 Build 0)  -->
<svg version="1.1" xmlns="http://www.w3.org/2000/svg" xmlns:xlink="http://www.w3.org/1999/xlink" x="0px" y="0px"
	 viewBox="0 0 157.89 183" style="enable-background:new 0 0 157.89 183;" xml:space="preserve">
<style type="text/css">
	.st0{fill:#FFFFFF;}
</style>
<g id="box">
	<path class="st0" d="M78.32,0L0,45.25v91.48L80.55,183l77.34-44.65V45.89L78.32,0z M80.46,91L3.61,46.69L78.3,3.24l76.49,44.27
		L80.46,91z M155.77,136.05l-73.3,42.84V94.42l73.3-42.99V136.05z"/>
</g>
<g id="cat">
	<g>
		<path d="M57.03,148.42c-0.5,1.93-0.36,3.79-0.8,5.59c-0.51,2.09-1.78,3.29-3.58,4.27c-0.99,0.54-2.13,0.75-3.01,1.61
			c-0.87,0.85-1.91,0.05-2.75-0.34c-1.2-0.56-2.3-1.32-3.42-2.04c-1.95-1.25-1.72-2.74,0-4.05c0.55-0.42,1.17-0.2,1.7,0.12
			c0.74,0.47,1.35,0.36,2.05-0.14c1.88-1.32,2.16-1.77,1.5-4.31c-0.82-3.12-1.56-6.27-2.83-9.26c-0.26-0.62-0.68-0.95-1.35-1.04
			c-1.78-0.23-3.29-1.17-4.92-1.81c-1-0.39-1.97-0.79-2.91-1.32c-0.99-0.57-2.02-1.07-2.94-1.84c-0.36,1.41,0.07,2.69,0.17,3.97
			c0.18,2.19,0.48,4.37,0.72,6.56c0.26,2.36,0.18,4.71,0.19,7.06c0.01,1.55-0.37,1.87-1.74,1.19c-1.75-0.87-3.7-1.51-4.85-3.28
			c-0.76-1.17-0.26-2.43,1.11-2.76c0.49-0.12,0.39-0.33,0.27-0.73c-1.54-5.57-3.22-11.06-7.35-15.39c-1-1.05-0.88-1.06-1.81,0.06
			c-1.86,2.26-3.86,4.39-6.26,6.11c-0.7,0.5-1.31,1.15-2.04,1.6c-1.32,0.81-2.7,0.95-4.2,0.33c-1.8-0.75-3.68-1.29-4.95-2.93
			c-0.77-0.99-0.18-1.9,0.26-2.71c0.31-0.56,0.95-0.53,1.62-0.29c0.48,0.17,1.08,0.12,1.62,0.24c0.4,0.09,0.72-0.11,0.95-0.47
			c0.96-1.55,2.11-3.01,2.85-4.65c0.95-2.11,1.88-4.28,1.96-6.66c0.09-2.77-0.32-5.47-0.89-8.19c-0.83-3.93-1.93-7.76-3.27-11.54
			c-0.48-1.35-0.96-2.71-1.38-4.1c-0.3-1-1.42-1.33-2.15-1.98c-0.75-0.67-1.58-1.23-2.16-2.09c-0.93-1.37-0.77-2.87-0.6-4.35
			c0.05-0.46,0.09-0.93,0.15-1.4c0.11-0.8,0.3-1.54,1.37-1.05c0.3,0.14,0.53-0.03,0.62-0.13c1.91-1.94,3.95-1.3,6.05-0.33
			c0.36-1.87,0.7-3.72,1.08-5.58c0.05-0.24,0.25-0.63,0.37-0.63c0.28,0.01,0.5,0.18,0.61,0.58c0.41,1.58,0.97,3.12,1.35,4.7
			c0.51,2.12,1.53,4.08,1.85,6.27c0.62,4.28,3.3,7.5,5.75,10.85c1.26,1.72,2.68,3.31,4.03,4.95c0.32,0.39,0.57,0.61,1.18,0.33
			c1.44-0.66,2.96-0.14,4.38,0.08c3.63,0.57,7.21,1.53,10.53,3.11c4.16,1.98,8.21,4.22,12.23,6.48c0.78,0.44,1.56,1.03,2.28,1.65
			c1.49,1.29,2.08,1.11,3.9,0.1c3.87-2.15,6.19-5.64,8.26-9.31c0.57-1.01,0.96-2.27,1.4-3.41c1.25-3.24,2.17-6.66,4.12-9.61
			c0.11-0.16,0.19-0.34,0.27-0.52c0.86-2.08,2.69-2.51,4.47-1.06c1.1,0.9,1.65,2.16,1.76,3.47c0.19,2.24,0.06,4.49-0.46,6.72
			c-0.34,1.49-0.78,3.01-1.49,4.28c-1.21,2.15-2.15,4.42-3.33,6.58c-1.24,2.27-2.86,4.21-4.53,6.14c-0.69,0.8-1.5,1.46-2.36,2.05
			c-1.68,1.13-3.14,2.58-5.04,3.4c-0.48,0.21-0.17,0.53,0.02,0.85c1.12,1.87,1.76,3.98,1.82,6.09c0.06,2.47,0.44,5.02-0.54,7.42
			c-0.23,0.56,0.1,0.85,0.42,1.2c1.56,1.66,3.34,3.13,4.13,5.43c0.55,1.59,0.97,3.22,1.28,4.85c0.44,2.34,0.9,4.67,1.38,7.01
			c0.55,2.64,1.11,5.28,1.48,7.94c0.11,0.8-0.13,1.72-0.23,2.57c-0.05,0.44-0.5,0.92-0.97,0.91c-0.67-0.01-1.27-0.42-1.61-1
			c-1.17-1.99-2-4.11-2.44-6.41c-0.3-1.55-0.88-3.06-1.21-4.62c-0.31-1.49-0.85-2.94-0.89-4.47c-0.03-0.91-0.89-0.96-1.34-1.3
			C61.66,152.26,59.29,150.53,57.03,148.42z"/>
	</g>
</g>
</svg>
