<?xml version="1.0" encoding="utf-8"?>
<!-- Generator: Adobe Illustrator 24.0.1, SVG Export Plug-In . SVG Version: 6.00 Build 0)  -->
<svg version="1.1" xmlns="http://www.w3.org/2000/svg" xmlns:xlink="http://www.w3.org/1999/xlink" x="0px" y="0px"
	 viewBox="0 0 157.89 183.09" style="enable-background:new 0 0 157.89 183.09;" xml:space="preserve">
<style type="text/css">
	.st0{fill:#FFFFFF;}
</style>
<g id="box">
	<path class="st0" d="M78.42,0L0,45.24v91.43l80.65,46.42l77.24-44.58V45.89L78.42,0z M78.54,178.9L2.16,134.77v-84.1l76.38,44.17
		V178.9z M155.94,136.03L82.54,178.9V94.82l73.41-43.32V136.03z"/>
</g>
<g id="cat">
	<g>
		<path d="M99.99,70.78c-4.43,0.35-8.87,0.12-13.29,0.33c-4.22,0.2-8.45,0.62-12.45,2.17c-2.58,1-4.95,2.41-7.08,4.17
			c-2.02,1.67-6.5,1.82-8.59,0.22c-1.22-0.93-1.21-2.82,0.11-3.84c2.72-2.08,5.4-4.2,8.62-5.53c3.37-1.39,6.86-2.32,10.35-3.29
			c7.07-1.98,14.4-2.2,21.63-3.13c4.64-0.6,9.24-1.41,13.54-3.31c1.78-0.78,3.47-1.81,4.76-3.34c2.03-2.4,0.63-4.47-1.26-5.82
			c-0.44-0.31-0.94-0.1-1.39,0.05c-2.59,0.82-5.2,1.52-7.92,1.84c-1.73,0.2-3.42-0.25-5.14-0.04c-0.63,0.08-1.27,0.08-1.9,0.14
			c-4.96,0.46-9.77-0.61-14.56-1.6c-1.78-0.37-3.49-1.11-4.99-2.21c-1.52-1.11-2.01-2.72-1.97-4.5c0.01-0.49,0.18-0.94-0.31-1.29
			c-2.55-1.81-4.6-4.17-6.87-6.28c-1.55-1.44-3.3-2.63-5.07-3.78c-0.79-0.51-1.53-1.05-1.87-1.96c-0.6-1.6-2.07-2.25-3.35-3.1
			c-0.3-0.2-0.63-0.03-0.94,0c-3.51,0.31-6.83-0.21-9.89-2.09c-0.79-0.49-1.38-1.13-1.37-1.96c0.01-0.74,0.78-1.1,1.49-1.34
			c0.52-0.18,0.99-0.55,1.52-0.69c1.27-0.34,1.99-0.92,2.4-2.36c0.51-1.77,2.13-2.96,3.65-3.96c2.75-1.79,5.62-3.63,8.95-3.75
			c3.16-0.11,3.9-2.77,5.63-4.38c0.42-0.39,0.77-0.83,1.33-0.85c2.34-0.07,4.38,0.64,5.95,2.46c0.47,0.55,0.61,1.18,0.65,1.88
			c0.03,0.67,0.11,1.34,0.23,2c0.31,1.76,1.75,2.22,3.16,2.7c1.36,0.46,2.73,0.86,4,1.54c0.55,0.3,1.18,0.15,1.77,0.18
			c3.71,0.21,7.12,1.21,10.02,3.66c1.1,0.92,2.54,1.18,3.86,1.57c2.98,0.88,5.99,1.59,9.14,1.75c5.56,0.29,10.11,2.64,13.41,7.19
			c1.3,1.79,1.24,3.91,1.22,5.98c-0.01,0.67-0.13,1.35-0.03,2.03c0.18,1.32-0.16,2.57-0.74,3.69c-0.56,1.08,0.05,1.53,0.83,1.74
			c1.54,0.43,2.81,1.35,4.12,2.15c3.44,2.12,4.94,5.85,3.19,9.8c-0.61,1.38-1.78,2.27-2.9,3.14c-3.34,2.61-7.01,4.71-10.74,6.72
			c-4.76,2.56-9.84,4.14-15.17,4.99C103.82,70.77,101.91,70.84,99.99,70.78z"/>
	</g>
</g>
</svg>
